<?xml version="1.0" encoding="iso-8859-1"?>
<!-- Uploaded to: SVG Repo, www.svgrepo.com, Generator: SVG Repo Mixer Tools -->
<svg fill="#000000" height="800px" width="800px" version="1.1" id="Layer_1" xmlns="http://www.w3.org/2000/svg" xmlns:xlink="http://www.w3.org/1999/xlink" 
	 viewBox="0 0 512 512" xml:space="preserve">
<g transform="translate(1 1)">
	<g>
		<g>
			<path d="M360.931,193.207c-34.428,0-61.793,27.365-61.793,61.793c0,34.428,27.366,61.793,61.793,61.793
				c34.428,0,61.793-27.366,61.793-61.793C422.724,220.572,395.359,193.207,360.931,193.207z M360.931,299.138
				c-24.717,0-44.138-19.421-44.138-44.138s19.421-44.138,44.138-44.138s44.138,19.421,44.138,44.138
				S385.648,299.138,360.931,299.138z"/>
			<path d="M255,219.69c34.428,0,61.793-27.365,61.793-61.793c0-34.428-27.365-61.793-61.793-61.793
				c-34.428,0-61.793,27.366-61.793,61.793C193.207,192.324,220.572,219.69,255,219.69z M255,113.759
				c24.717,0,44.138,19.421,44.138,44.138S279.717,202.034,255,202.034s-44.138-19.421-44.138-44.138S230.283,113.759,255,113.759z"
				/>
			<path d="M149.069,122.586c34.428,0,61.793-27.365,61.793-61.793C210.862,26.366,183.497-1,149.069-1
				c-34.428,0-61.793,27.366-61.793,61.793C87.276,95.221,114.641,122.586,149.069,122.586z M149.069,16.655
				c24.717,0,44.138,19.421,44.138,44.138c0,24.717-19.421,44.138-44.138,44.138s-44.138-19.421-44.138-44.138
				C104.931,36.076,124.352,16.655,149.069,16.655z"/>
			<path d="M255,290.31c-34.428,0-61.793,27.365-61.793,61.793s27.366,61.793,61.793,61.793c34.428,0,61.793-27.365,61.793-61.793
				S289.428,290.31,255,290.31z M255,396.241c-24.717,0-44.138-19.421-44.138-44.138s19.421-44.138,44.138-44.138
				s44.138,19.421,44.138,44.138S279.717,396.241,255,396.241z"/>
			<path d="M149.069,387.414c-34.428,0-61.793,27.365-61.793,61.793S114.641,511,149.069,511c34.428,0,61.793-27.365,61.793-61.793
				S183.497,387.414,149.069,387.414z M149.069,493.345c-24.717,0-44.138-19.421-44.138-44.138s19.421-44.138,44.138-44.138
				s44.138,19.421,44.138,44.138S173.786,493.345,149.069,493.345z"/>
		</g>
	</g>
</g>
</svg>